<?xml version="1.0" encoding="UTF-8"?>
<svg version="1.1" xmlns="http://www.w3.org/2000/svg" width="301" height="300">
<path d="M0 0 C1.26328125 -0.0721875 2.5265625 -0.144375 3.828125 -0.21875 C9.41313948 0.80479847 11.83569254 3.53883922 15.75 7.5 C16.74004098 8.47433478 17.7313407 9.44739154 18.72363281 10.41943359 C22.09135779 13.73352184 25.42160223 17.08399476 28.75 20.4375 C29.91773374 21.61026009 31.08570074 22.78278798 32.25390625 23.95507812 C35.08863234 26.80071689 37.92018824 29.64947453 40.75 32.5 C45.07444921 28.96126903 49.05684921 25.23840659 52.96484375 21.2421875 C53.42790924 20.76888 53.89097473 20.29557251 54.36807251 19.80792236 C56.29563472 17.83521673 58.22096014 15.86070625 60.1315918 13.87158203 C72.13444131 1.40167176 72.13444131 1.40167176 81.05859375 -0.03125 C92.6408237 0.0844277 100.27299151 3.64142095 108.75 11.5 C114.78251582 17.87502129 119.73575908 25.21399044 122.75 33.5 C122.42 34.49 122.09 35.48 121.75 36.5 C117.77552331 35.98235293 116.47176101 34.27357647 114.0625 31.1875 C109.651533 26.04819151 105.35442779 23.22391369 98.61328125 22.1640625 C93.33236305 21.90253131 89.27177985 23.39828217 85.21929932 26.77572632 C83.59717924 28.30751392 82.03160356 29.88065222 80.4765625 31.48046875 C79.90795502 32.05332108 79.33934753 32.6261734 78.75350952 33.21638489 C76.9534567 35.03312179 75.16416568 36.86004666 73.375 38.6875 C72.15043773 39.92712235 70.92518406 41.1660621 69.69921875 42.40429688 C66.70808901 45.42835947 63.72656094 48.46159915 60.75 51.5 C66.29797068 58.25697447 72.46753189 64.36305821 78.6484375 70.53125 C79.80911585 71.69260341 80.96964583 72.85410512 82.1300354 74.01574707 C84.55414514 76.44132481 86.98003773 78.86510118 89.40722656 81.28759766 C92.49919788 84.37387866 95.58666559 87.46461974 98.67279625 90.55673981 C101.06634909 92.95392802 103.46230559 95.34870246 105.85896683 97.74278259 C106.99744427 98.88059864 108.1351952 100.01914216 109.27216721 101.15846252 C114.73558415 106.63068651 120.19081126 112.06496688 126.09500122 117.06861877 C128.95752152 119.54436551 131.59739407 122.24090953 134.25 124.9375 C134.78625 125.47826172 135.3225 126.01902344 135.875 126.57617188 C137.16904036 127.88176617 138.45988174 129.19052996 139.75 130.5 C144.09245112 128.81699277 146.98548371 125.60604937 150.23046875 122.390625 C151.15065544 121.48398102 151.15065544 121.48398102 152.08943176 120.559021 C153.38224171 119.28069398 154.67227925 117.99955786 155.9597168 116.71582031 C157.92891943 114.75852867 159.9159953 112.82067455 161.90429688 110.8828125 C163.16000115 109.6365713 164.41459649 108.38921154 165.66796875 107.140625 C166.26272507 106.565401 166.85748138 105.990177 167.47026062 105.39752197 C170.8813914 101.94853121 172.69539535 99.58400346 172.75 94.5 C171.42570727 91.18194858 171.42570727 91.18194858 169.75 88.5 C165.78096419 90.0913587 163.16673127 92.85983383 160.25 95.875 C159.73244141 96.40013184 159.21488281 96.92526367 158.68164062 97.46630859 C157.03284859 99.13946456 155.39067484 100.81888599 153.75 102.5 C151.58913474 104.71412603 149.42170824 106.92151397 147.25 109.125 C146.75822266 109.63337402 146.26644531 110.14174805 145.75976562 110.66552734 C142.29998581 114.17422129 139.782839 116.23484709 134.875 116.875 C130.8269823 116.38923788 128.95895807 115.00224772 125.75 112.5 C120.23563766 104.75927828 116.84574642 95.67491164 113.75 86.75 C113.44715088 85.89994385 113.14430176 85.0498877 112.83227539 84.17407227 C110.66366343 77.5728149 109.22436149 70.18885395 111.43212891 63.40356445 C113.63056868 59.11085747 116.57624116 56.76078604 120.75 54.5 C134.52025729 50.39646333 151.62635392 57.19105228 163.75 63.5 C177.71693048 72.06496246 185.7425334 83.69807571 190.95703125 99.0546875 C191.78358942 102.64594024 192.08421955 105.88002567 192.125 109.5625 C192.15335937 110.72910156 192.18171875 111.89570312 192.2109375 113.09765625 C191.28916071 119.90161885 186.15550694 124.37497257 181.453125 128.9921875 C180.85949158 129.58299103 180.26585815 130.17379456 179.65423584 130.78250122 C177.77417013 132.65145382 175.8872404 134.51329541 174 136.375 C172.71698632 137.64797243 171.43442945 138.92140545 170.15234375 140.1953125 C167.023487 143.30222667 163.88845866 146.40278675 160.75 149.5 C162.32605004 153.41803631 165.02288562 155.96492933 168.01953125 158.82421875 C169.08426899 159.86364083 170.1487126 160.90336426 171.21289062 161.94335938 C172.88090689 163.56203617 174.55191213 165.1773372 176.22875977 166.78686523 C190.67520318 180.68977486 190.67520318 180.68977486 192.4140625 190.08984375 C192.2721289 202.25355364 188.49798235 209.40693147 180.2109375 218.17578125 C173.8304626 224.20178532 164.8214451 231.5 155.75 231.5 C156.07114971 228.34293504 156.39468012 226.85459915 158.67578125 224.578125 C159.46339844 223.97484375 160.25101562 223.3715625 161.0625 222.75 C166.27383525 218.33530198 168.83959942 214.13078756 170.15625 207.43359375 C170.60373341 201.71699313 168.07691676 197.84717714 164.75 193.5 C160.95182546 189.3549932 156.96012477 185.4255543 152.9375 181.5 C151.85151598 180.42909234 150.76622345 179.35748298 149.68164062 178.28515625 C147.04568389 175.68196555 144.40049505 173.08839646 141.75 170.5 C129.87289359 175.53809807 119.35527922 189.76221487 110.359375 198.79296875 C108.91943038 200.23478352 107.47926106 201.67637391 106.03887939 203.11775208 C102.28851829 206.87189142 98.54117256 210.6290261 94.79449463 214.38684082 C90.95469362 218.23695811 87.11198232 222.08416843 83.26953125 225.93164062 C75.76020562 233.45162056 68.25406941 240.9747752 60.75 248.5 C61.68906787 249.60340933 62.62927512 250.70584903 63.56994629 251.80789185 C64.35512508 252.72893298 64.35512508 252.72893298 65.15616608 253.66858101 C69.08622544 258.1844752 73.34539827 262.40031878 77.55419922 266.65429688 C78.69011593 267.80689419 79.82062309 268.9648465 80.94580078 270.12792969 C82.58725475 271.82414641 84.24456286 273.50331548 85.90625 275.1796875 C86.40330444 275.69941132 86.90035889 276.21913513 87.41247559 276.75460815 C90.70003006 280.02267093 93.09253958 281.35859549 97.75 281.5 C100.62391821 280.32725006 100.62391821 280.32725006 102.75 278.5 C102.97575936 276.18831122 102.97575936 276.18831122 100.48681641 274.04150391 C99.44645179 273.01505068 98.40097894 271.99375958 97.3515625 270.9765625 C96.80140472 270.43397797 96.25124695 269.89139343 95.68441772 269.33236694 C93.32432634 267.00503893 90.95275357 264.68953698 88.58203125 262.37304688 C86.85527445 260.68250241 85.13456729 258.98596563 83.4140625 257.2890625 C82.60927963 256.50917465 82.60927963 256.50917465 81.78823853 255.71353149 C77.92247021 251.89880361 75.93049768 249.48547449 75.4375 244.0625 C75.7857973 240.09191076 76.19523733 238.53378067 78.75 235.5 C84.08372299 231.61303731 89.92647722 228.88647706 96 226.375 C96.83047852 226.02953125 97.66095703 225.6840625 98.51660156 225.328125 C108.08160612 221.43526101 118.11074225 217.4395407 128.375 220.625 C133.11581656 223.25878698 135.85025191 226.28287332 137.89453125 231.3203125 C141.95042075 246.39562782 133.11482614 264.56216018 125.75 277.5 C117.42975229 289.62951775 103.80116036 297.02498185 89.75 300.5 C86.06640625 300.94140625 86.06640625 300.94140625 82.3125 301.0625 C80.45818359 301.15724609 80.45818359 301.15724609 78.56640625 301.25390625 C73.08835933 300.17175369 70.6113278 297.39286204 66.75 293.5 C65.75949916 292.52596553 64.76797205 291.552974 63.77563477 290.58081055 C60.40844108 287.26636497 57.07830827 283.91591506 53.75 280.5625 C52.58226626 279.38973991 51.41429926 278.21721202 50.24609375 277.04492188 C47.41136766 274.19928311 44.57981176 271.35052547 41.75 268.5 C37.42555079 272.03873097 33.44315079 275.76159341 29.53515625 279.7578125 C29.07209076 280.23112 28.60902527 280.70442749 28.13192749 281.19207764 C26.20436528 283.16478327 24.27903986 285.13929375 22.3684082 287.12841797 C10.36555869 299.59832824 10.36555869 299.59832824 1.44140625 301.03125 C-10.45345607 300.91244988 -18.53705626 296.96646417 -27.05859375 288.7578125 C-33.36209849 281.99102122 -39.17031788 273.82956085 -40.25 264.5 C-37.09293504 264.82114971 -35.60459915 265.14468012 -33.328125 267.42578125 C-32.72484375 268.21339844 -32.1215625 269.00101562 -31.5 269.8125 C-27.12372346 274.97848058 -22.85134692 277.77657069 -16.11328125 278.8359375 C-10.83236305 279.09746869 -6.77177985 277.60171783 -2.71929932 274.22427368 C-1.09717924 272.69248608 0.46839644 271.11934778 2.0234375 269.51953125 C2.87634872 268.66025276 2.87634872 268.66025276 3.74649048 267.78361511 C5.5465433 265.96687821 7.33583432 264.13995334 9.125 262.3125 C10.34956227 261.07287765 11.57481594 259.8339379 12.80078125 258.59570312 C15.79191099 255.57164053 18.77343906 252.53840085 21.75 249.5 C17.01058005 243.8031887 11.94009061 238.54431339 6.6953125 233.3125 C5.40474442 232.02049683 5.40474442 232.02049683 4.08810425 230.70239258 C2.27562245 228.88923313 0.46188859 227.07732451 -1.35302734 225.26660156 C-4.11279518 222.51218117 -6.86719682 219.75247627 -9.62109375 216.9921875 C-11.39030454 215.22363769 -13.1598256 213.45539821 -14.9296875 211.6875 C-16.15194534 210.46220581 -16.15194534 210.46220581 -17.39889526 209.2121582 C-21.61095619 205.01710045 -25.90323174 200.99616876 -30.40774536 197.11764526 C-33.22436571 194.64442985 -35.86398041 192.0105874 -38.5 189.34765625 C-39.04358154 188.80265976 -39.58716309 188.25766327 -40.1472168 187.69615173 C-41.85054815 185.98730783 -43.55033326 184.27498803 -45.25 182.5625 C-46.41773374 181.38973991 -47.58570074 180.21721202 -48.75390625 179.04492188 C-51.58863234 176.19928311 -54.42018824 173.35052547 -57.25 170.5 C-61.59245112 172.18300723 -64.48548371 175.39395063 -67.73046875 178.609375 C-68.34392654 179.21380432 -68.95738434 179.81823364 -69.58943176 180.440979 C-70.88224171 181.71930602 -72.17227925 183.00044214 -73.4597168 184.28417969 C-75.42891943 186.24147133 -77.4159953 188.17932545 -79.40429688 190.1171875 C-80.66000115 191.3634287 -81.91459649 192.61078846 -83.16796875 193.859375 C-83.76272507 194.434599 -84.35748138 195.009823 -84.97026062 195.60247803 C-88.3813914 199.05146879 -90.19539535 201.41599654 -90.25 206.5 C-88.92570727 209.81805142 -88.92570727 209.81805142 -87.25 212.5 C-83.28347694 210.91175582 -80.68886332 208.14597326 -77.78515625 205.125 C-76.72733337 204.04675743 -75.66938685 202.96863614 -74.61132812 201.890625 C-72.95874189 200.19455611 -71.30871373 198.49609 -69.66137695 196.79492188 C-68.06331187 195.14844503 -66.45603843 193.51139074 -64.84765625 191.875 C-64.36104019 191.36662598 -63.87442413 190.85825195 -63.37306213 190.33447266 C-60.53992811 187.46081949 -58.15849918 185.58920765 -54.25 184.5 C-50.08274864 184.5744152 -47.97558772 184.88101522 -44.77734375 187.609375 C-42.03102746 190.75044773 -40.11943331 193.96162195 -38.3125 197.6875 C-37.97476563 198.37803467 -37.63703125 199.06856934 -37.2890625 199.7800293 C-24.95588425 225.7640579 -24.95588425 225.7640579 -28.953125 237.578125 C-31.0967228 241.90165276 -34.10556371 244.20733312 -38.25 246.5 C-51.8094281 251.01980937 -67.31179179 244.39090992 -79.45507812 238.42626953 C-94.92549239 230.44276141 -102.2882801 218.1193076 -108.421875 202.51953125 C-109.41314063 198.90515232 -109.55116158 195.68295889 -109.5625 191.9375 C-109.57925781 190.65746094 -109.59601563 189.37742188 -109.61328125 188.05859375 C-108.93692198 181.43318195 -105.45497428 178.65558325 -100.6171875 174.56982422 C-95.93393198 170.47487369 -91.62705631 165.97932045 -87.25 161.5625 C-86.27497614 160.5824469 -85.2997172 159.6026276 -84.32421875 158.62304688 C-81.96383382 156.25097687 -79.60583095 153.8765914 -77.25 151.5 C-83.18319745 144.26922514 -89.89498997 137.88277741 -96.63867188 131.4140625 C-102.86442635 125.30811941 -108.28807663 119.70004457 -109.9140625 110.91015625 C-109.7721289 98.74644636 -105.99798235 91.59306853 -97.7109375 82.82421875 C-91.3304626 76.79821468 -82.3214451 69.5 -73.25 69.5 C-73.57114971 72.65706496 -73.89468012 74.14540085 -76.17578125 76.421875 C-76.96339844 77.02515625 -77.75101563 77.6284375 -78.5625 78.25 C-83.77383525 82.66469802 -86.33959942 86.86921244 -87.65625 93.56640625 C-88.10415498 99.28839235 -85.58832466 103.15506625 -82.25 107.5 C-78.28654119 111.81263018 -74.12634144 115.90786624 -69.9375 120 C-68.80333957 121.11908583 -67.66986982 122.2388721 -66.53710938 123.359375 C-63.78263936 126.08106075 -61.01898475 128.79308584 -58.25 131.5 C-53.1756555 127.2507125 -48.41990451 122.80894515 -43.75415039 118.11767578 C-43.04111755 117.40478897 -42.32808472 116.69190216 -41.59344482 115.95741272 C-39.25913443 113.62241086 -36.9283769 111.28389705 -34.59765625 108.9453125 C-32.97120181 107.31699116 -31.34452509 105.68889182 -29.71763611 104.06100464 C-25.45264503 99.79220984 -21.19066664 95.5204196 -16.92932129 91.24798584 C-12.57384678 86.88225097 -8.21551227 82.51937329 -3.85742188 78.15625 C4.68117747 69.60695118 13.21659493 61.05448323 21.75 52.5 C20.81122111 51.39728713 19.87135456 50.29550017 18.93104553 49.1940918 C18.40777711 48.58043259 17.88450869 47.96677338 17.34538364 47.33451843 C13.390364 42.78667411 9.12067279 38.52616533 4.89086914 34.23583984 C3.74723482 33.07040484 2.60992082 31.89873669 1.47875977 30.72119141 C-0.16792067 29.00788503 -1.83320827 27.31485357 -3.50390625 25.625 C-4.00612198 25.09495361 -4.50833771 24.56490723 -5.02577209 24.01879883 C-7.28832364 21.76930424 -8.60938924 20.53260899 -11.85913086 20.3671875 C-14.93252437 21.82338538 -16.33439881 23.7330205 -18.25 26.5 C-17.4979126 27.24685059 -16.7458252 27.99370117 -15.97094727 28.76318359 C-13.18603358 31.53002167 -10.40441067 34.3001479 -7.6237793 37.07128906 C-6.41894871 38.27108532 -5.21322288 39.46998326 -4.0065918 40.66796875 C-2.27417648 42.38827923 -0.5449873 44.11177544 1.18359375 45.8359375 C1.99611855 46.64072037 1.99611855 46.64072037 2.82505798 47.46176147 C6.20548058 50.84167387 7.58282757 52.40409187 8.3125 57.1875 C8.27334881 59.93455738 8.07444858 61.1178238 6.27905273 63.23266602 C1.17425636 67.49752067 -4.10499932 71.23433345 -9.75 74.75 C-10.55308594 75.265625 -11.35617188 75.78125 -12.18359375 76.3125 C-20.61920532 81.61722818 -28.12158877 84.73963865 -38.25 83.5 C-44.56415034 81.97370179 -48.984842 79.5171415 -53.09375 74.4765625 C-57.8336296 66.37393049 -56.48102266 57.55143783 -54.34375 48.78125 C-48.79229291 30.92656369 -40.21680406 15.53398044 -23.25 6.5 C-15.39775071 2.83498401 -8.68596655 0.35165856 0 0 Z M-30.25 49.5 C-32.90673037 54.03858105 -33.66199125 57.2471116 -33.25 62.5 C-32.92 62.83 -32.59 63.16 -32.25 63.5 C-30.20952472 63.4739796 -30.20952472 63.4739796 -27.875 63.1875 C-27.08351563 63.10886719 -26.29203125 63.03023437 -25.4765625 62.94921875 C-22.9759341 62.5911488 -22.9759341 62.5911488 -20.25 60.5 C-20.82619097 56.93235179 -22.11969484 55.24840503 -24.6875 52.75 C-25.61369141 51.82960937 -25.61369141 51.82960937 -26.55859375 50.890625 C-28.14253519 49.28830608 -28.14253519 49.28830608 -30.25 49.5 Z M38.74742126 72.38905334 C37.86776199 73.27394943 36.98810272 74.15884552 36.08178711 75.07055664 C35.35469543 75.79983871 35.35469543 75.79983871 34.61291504 76.54385376 C33.55543877 77.60514812 32.49911963 78.66759637 31.44379997 79.73103523 C29.76781836 81.41975404 28.0887563 83.10535303 26.40882874 84.79014587 C22.22990281 88.98246639 18.05630405 93.18007753 13.88269043 97.37768555 C10.36791012 100.91230986 6.85101741 104.44480708 3.33136177 107.97457695 C1.68764786 109.62471418 0.04701091 111.27786792 -1.59352112 112.9311676 C-6.44029963 117.8013557 -11.32570032 122.56186062 -16.55223083 127.02931213 C-19.02216687 129.16888743 -21.32227053 131.46022222 -23.625 133.77734375 C-24.54667969 134.70224609 -25.46835938 135.62714844 -26.41796875 136.58007812 C-27.36203607 137.53249568 -28.30604582 138.48497031 -29.25 139.4375 C-30.22502386 140.4175531 -31.2002828 141.3973724 -32.17578125 142.37695312 C-34.53616618 144.74902313 -36.89416905 147.1234086 -39.25 149.5 C-37.87850763 152.57486553 -36.31548894 154.68314469 -33.93701172 157.0559082 C-33.262258 157.73373856 -32.58750427 158.41156891 -31.89230347 159.10993958 C-31.1621402 159.83291733 -30.43197693 160.55589508 -29.6796875 161.30078125 C-28.92462921 162.05538132 -28.16957092 162.80998138 -27.39163208 163.58744812 C-25.79177249 165.18428739 -24.18948395 166.77869627 -22.58496094 168.37084961 C-20.14988651 170.78779873 -17.72277849 173.21252165 -15.296875 175.63867188 C-13.7374476 177.19317839 -12.17756589 178.74722932 -10.6171875 180.30078125 C-9.89916962 181.01768631 -9.18115173 181.73459137 -8.44137573 182.47322083 C-5.12959785 185.75453933 -1.78535853 188.94597758 1.74560547 191.99121094 C6.0939794 195.74602594 10.14098849 199.76449691 14.1875 203.83984375 C14.95304199 204.60680069 15.71858398 205.37375763 16.50732422 206.16395569 C18.92393197 208.58610881 21.33701726 211.01173612 23.75 213.4375 C25.39950686 215.09202893 27.04924429 216.74632802 28.69921875 218.40039062 C32.71881371 222.43094202 36.73553169 226.46434272 40.75 230.5 C46.1289643 226.01569523 51.10541994 221.26332087 56.02734375 216.28515625 C56.79752335 215.51119003 57.56770294 214.73722382 58.36122131 213.93980408 C61.62802854 210.65678267 64.88883041 207.36782055 68.15014648 204.0793457 C70.54461138 201.66668469 72.94215797 199.25711573 75.33984375 196.84765625 C76.06405014 196.11515152 76.78825653 195.38264679 77.53440857 194.62794495 C81.49449 190.64911067 85.55706462 186.87865928 89.80860901 183.21430969 C93.03827613 180.36241141 96.06091224 177.31219978 99.09375 174.25390625 C99.74831177 173.59792953 100.40287354 172.94195282 101.07727051 172.26609802 C103.13723823 170.20059855 105.19367366 168.13162405 107.25 166.0625 C108.6586205 164.64885566 110.06747267 163.23544214 111.4765625 161.82226562 C114.90372133 158.38416851 118.32772019 154.94295344 121.75 151.5 C120.1681616 147.61611344 117.52190147 144.99833938 114.5859375 142.10546875 C114.07503571 141.59502518 113.56413391 141.0845816 113.03775024 140.55867004 C111.95575408 139.47968943 110.87133401 138.40313476 109.78466797 137.32885742 C108.14631724 135.70858205 106.51593063 134.08063068 104.88671875 132.45117188 C103.82859182 131.39796829 102.77001159 130.34521989 101.7109375 129.29296875 C101.23353119 128.81667526 100.75612488 128.34038177 100.26425171 127.84965515 C97.60855178 125.22974229 94.88565378 122.73749107 92.05297852 120.30957031 C87.28714226 116.17274181 82.85718981 111.72084894 78.41571236 107.24087715 C76.90921901 105.72144251 75.39946766 104.20531045 73.88890076 102.68992615 C70.69391243 99.48361842 67.50293559 96.27333709 64.3125 93.0625 C60.58873194 89.31511896 56.86333138 85.56939017 53.13374138 81.82780266 C51.64428411 80.33185116 50.15785887 78.83293057 48.67152405 77.33387756 C47.77646652 76.43551682 46.881409 75.53715607 45.95922852 74.61157227 C45.16839371 73.81550064 44.3775589 73.01942902 43.5627594 72.19923401 C41.17449865 69.89401642 41.17449865 69.89401642 38.74742126 72.38905334 Z M128.75 77.5 C128.86458693 78.93836751 128.99209116 80.37570966 129.125 81.8125 C129.19460937 82.61300781 129.26421875 83.41351563 129.3359375 84.23828125 C129.64564426 86.77224441 129.64564426 86.77224441 131.75 89.5 C134.96524305 88.09155282 137.07183868 86.39655214 139.5 83.875 C140.11359375 83.24335937 140.7271875 82.61171875 141.359375 81.9609375 C141.81828125 81.47882813 142.2771875 80.99671875 142.75 80.5 C140.57934212 78.03765996 138.93323345 76.97727951 135.75 76.1875 C135.069375 76.00574219 134.38875 75.82398437 133.6875 75.63671875 C131.41991634 75.27813384 131.41991634 75.27813384 128.75 77.5 Z M-53.4140625 213.46875 C-54.22617187 214.3040625 -55.03828125 215.139375 -55.875 216 C-57.10089844 217.25296875 -57.10089844 217.25296875 -58.3515625 218.53125 C-58.97804687 219.1809375 -59.60453125 219.830625 -60.25 220.5 C-58.00629778 223.86555333 -57.55467919 224.00753206 -53.8125 224.8125 C-53.03003906 224.99425781 -52.24757813 225.17601562 -51.44140625 225.36328125 C-48.95472511 225.74040761 -48.95472511 225.74040761 -46.25 223.5 C-46.36458693 222.06163249 -46.49209116 220.62429034 -46.625 219.1875 C-46.69460937 218.38699219 -46.76421875 217.58648437 -46.8359375 216.76171875 C-47.14564426 214.22775559 -47.14564426 214.22775559 -49.25 211.5 C-51.4910341 211.27568714 -51.4910341 211.27568714 -53.4140625 213.46875 Z M102.75 240.5 C103.31959153 244.12613199 104.67374534 245.75517741 107.3125 248.25 C107.95316406 248.86359375 108.59382812 249.4771875 109.25390625 250.109375 C109.74761719 250.56828125 110.24132812 251.0271875 110.75 251.5 C113.89210205 250.83201258 113.89210205 250.83201258 114.9375 248.3125 C115.83797102 245.19548494 116.03697122 242.72842628 115.75 239.5 C113.94921218 237.29713999 113.94921218 237.29713999 111.5 237.1875 C108.10270128 237.57355667 105.71562269 238.84476873 102.75 240.5 Z " fill="#00558C" transform="translate(109.25,-0.5)"/>
<path d="M0 0 C1.07507813 -0.00128906 2.15015625 -0.00257812 3.2578125 -0.00390625 C4.38960937 -0.00003906 5.52140625 0.00382812 6.6875 0.0078125 C7.81929687 0.00394531 8.95109375 0.00007813 10.1171875 -0.00390625 C11.19226563 -0.00261719 12.26734375 -0.00132813 13.375 0 C14.86580078 0.00169189 14.86580078 0.00169189 16.38671875 0.00341797 C18.6875 0.1328125 18.6875 0.1328125 19.6875 1.1328125 C19.78696453 2.90140443 19.81830217 4.67392701 19.8203125 6.4453125 C19.82224609 8.05792969 19.82224609 8.05792969 19.82421875 9.703125 C19.82035156 10.83492187 19.81648438 11.96671875 19.8125 13.1328125 C19.81830078 14.83050781 19.81830078 14.83050781 19.82421875 16.5625 C19.82292969 17.63757813 19.82164062 18.71265625 19.8203125 19.8203125 C19.81918457 20.81417969 19.81805664 21.80804688 19.81689453 22.83203125 C19.6875 25.1328125 19.6875 25.1328125 18.6875 26.1328125 C15.8011866 26.26076248 12.94936556 26.31803938 10.0625 26.3203125 C9.26714844 26.33255859 8.47179687 26.34480469 7.65234375 26.35742188 C2.60608428 26.36985109 -1.53049706 25.75459098 -6.3125 24.1328125 C-6.34137236 20.32032824 -6.35925492 16.5078718 -6.375 12.6953125 C-6.38337891 11.60669922 -6.39175781 10.51808594 -6.40039062 9.39648438 C-6.40361328 8.36201172 -6.40683594 7.32753906 -6.41015625 6.26171875 C-6.41539307 5.30338135 -6.42062988 4.34504395 -6.42602539 3.35766602 C-6.20707371 -0.93331615 -3.71692998 0.00421831 0 0 Z " fill="#00558C" transform="translate(197.3125,36.8671875)"/>
<path d="M0 0 C1.5631897 0.00785522 1.5631897 0.00785522 3.15795898 0.01586914 C4.17059814 0.0183667 5.1832373 0.02086426 6.2265625 0.0234375 C7.52263428 0.0325415 8.81870605 0.04164551 10.15405273 0.05102539 C16.31061523 0.08196289 16.31061523 0.08196289 22.59155273 0.11352539 C22.59155273 8.36352539 22.59155273 16.61352539 22.59155273 25.11352539 C14.01155273 25.11352539 5.43155273 25.11352539 -3.40844727 25.11352539 C-3.42907227 21.17415039 -3.44969727 17.23477539 -3.47094727 13.17602539 C-3.48460327 11.31022827 -3.48460327 11.31022827 -3.49853516 9.40673828 C-3.50228149 7.94868774 -3.50228149 7.94868774 -3.50610352 6.46118164 C-3.51134033 5.46094971 -3.51657715 4.46071777 -3.52197266 3.43017578 C-3.36587418 0.24475969 -3.19065853 0.15039597 0 0 Z " fill="#00558C" transform="translate(40.408447265625,83.886474609375)"/>
<path d="M0 0 C4.14581887 -0.02886751 8.29161216 -0.04675327 12.4375 -0.0625 C14.21350586 -0.07506836 14.21350586 -0.07506836 16.02539062 -0.08789062 C17.15009766 -0.09111328 18.27480469 -0.09433594 19.43359375 -0.09765625 C20.47572021 -0.10289307 21.51784668 -0.10812988 22.59155273 -0.11352539 C25 0 25 0 26 1 C26.09932153 2.69558726 26.13080007 4.39525747 26.1328125 6.09375 C26.13474609 7.63869141 26.13474609 7.63869141 26.13671875 9.21484375 C26.13285156 10.29894531 26.12898438 11.38304687 26.125 12.5 C26.13080078 14.12615234 26.13080078 14.12615234 26.13671875 15.78515625 C26.13542969 16.81511719 26.13414063 17.84507812 26.1328125 18.90625 C26.13168457 19.85822266 26.13055664 20.81019531 26.12939453 21.79101562 C26 24 26 24 25 25 C23.23140807 25.09946453 21.45888549 25.13080217 19.6875 25.1328125 C18.61242187 25.13410156 17.53734375 25.13539063 16.4296875 25.13671875 C15.29789063 25.13285156 14.16609375 25.12898438 13 25.125 C11.86820313 25.12886719 10.73640625 25.13273437 9.5703125 25.13671875 C8.49523437 25.13542969 7.42015625 25.13414062 6.3125 25.1328125 C5.31863281 25.13168457 4.32476562 25.13055664 3.30078125 25.12939453 C1 25 1 25 0 24 C-0.08726223 22.21928754 -0.10699041 20.4351686 -0.09765625 18.65234375 C-0.09443359 17.57275391 -0.09121094 16.49316406 -0.08789062 15.38085938 C-0.07951172 14.24455078 -0.07113281 13.10824219 -0.0625 11.9375 C-0.05798828 10.79732422 -0.05347656 9.65714844 -0.04882812 8.48242188 C-0.03699747 5.65489649 -0.0205141 2.8274736 0 0 Z " fill="#00558C" transform="translate(84,238)"/>
<path d="M0 0 C1.07507813 -0.00128906 2.15015625 -0.00257813 3.2578125 -0.00390625 C4.38960937 -0.00003906 5.52140625 0.00382813 6.6875 0.0078125 C7.81929687 0.00394531 8.95109375 0.00007812 10.1171875 -0.00390625 C11.19226563 -0.00261719 12.26734375 -0.00132812 13.375 0 C14.86580078 0.00169189 14.86580078 0.00169189 16.38671875 0.00341797 C18.6875 0.1328125 18.6875 0.1328125 19.6875 1.1328125 C19.78682153 2.82839976 19.81830007 4.52806997 19.8203125 6.2265625 C19.82224609 7.77150391 19.82224609 7.77150391 19.82421875 9.34765625 C19.82035156 10.43175781 19.81648438 11.51585937 19.8125 12.6328125 C19.81830078 14.25896484 19.81830078 14.25896484 19.82421875 15.91796875 C19.82292969 16.94792969 19.82164062 17.97789062 19.8203125 19.0390625 C19.81918457 19.99103516 19.81805664 20.94300781 19.81689453 21.92382812 C19.6875 24.1328125 19.6875 24.1328125 18.6875 25.1328125 C16.83380389 25.22018895 14.97682459 25.23979403 13.12109375 25.23046875 C11.99638672 25.22724609 10.87167969 25.22402344 9.71289062 25.22070312 C8.52888672 25.21232422 7.34488281 25.20394531 6.125 25.1953125 C4.93712891 25.19080078 3.74925781 25.18628906 2.52539062 25.18164062 C-0.42062226 25.16980925 -3.36653681 25.15332537 -6.3125 25.1328125 C-6.34136984 21.15366091 -6.35925406 17.17453597 -6.375 13.1953125 C-6.38337891 12.05900391 -6.39175781 10.92269531 -6.40039062 9.75195312 C-6.40361328 8.67236328 -6.40683594 7.59277344 -6.41015625 6.48046875 C-6.41539307 5.48023682 -6.42062988 4.48000488 -6.42602539 3.44946289 C-6.21168163 -0.9245326 -3.81526741 0.00432991 0 0 Z " fill="#00558C" transform="translate(244.3125,190.8671875)"/>
</svg>
